<svg xmlns="http://www.w3.org/2000/svg" width="32" height="32" viewBox="0 0 32 32" fill="none">
  <rect width="32" height="32" rx="8" fill="#5865F2"/>
  <path d="M22.2 11.2C21.1 10.7 19.9 10.3 18.7 10.1C18.5 10.5 18.3 10.9 18.2 11.3C16.9 11.1 15.6 11.1 14.3 11.3C14.1 10.9 13.9 10.5 13.8 10.1C12.5 10.3 11.4 10.7 10.3 11.2C8.1 14.5 7.5 17.7 7.8 20.9C9.2 21.9 10.5 22.5 11.8 22.9C12.2 22.4 12.5 21.8 12.8 21.2C12.2 21 11.7 20.7 11.2 20.4C11.3 20.3 11.4 20.2 11.5 20.1C14.3 21.4 17.4 21.4 20.1 20.1C20.2 20.2 20.3 20.3 20.4 20.4C19.9 20.7 19.4 21 18.8 21.2C19.1 21.8 19.4 22.4 19.8 22.9C21.1 22.5 22.4 21.9 23.8 20.9C24.2 17.2 23.2 14 22.2 11.2ZM13.2 18.9C12.4 18.9 11.8 18.2 11.8 17.3C11.8 16.4 12.4 15.7 13.2 15.7C14 15.7 14.6 16.4 14.6 17.3C14.6 18.2 14 18.9 13.2 18.9ZM19.3 18.9C18.5 18.9 17.9 18.2 17.9 17.3C17.9 16.4 18.5 15.7 19.3 15.7C20.1 15.7 20.7 16.4 20.7 17.3C20.7 18.2 20.1 18.9 19.3 18.9Z" fill="white"/>
</svg>